<svg width="65" height="65" viewBox="0 0 65 65" fill="none" xmlns="http://www.w3.org/2000/svg">
<path d="M0 12C0 5.37258 5.37258 0 12 0H53C59.6274 0 65 5.37258 65 12V53C65 59.6274 59.6274 65 53 65H12C5.37258 65 0 59.6274 0 53V12Z" fill="#0994E0"/>
<path d="M37.9777 30.8692H32.5042V25.9645H37.9777V30.8692ZM37.9777 14H32.5042V19.0121H37.9777V14ZM44.4532 25.9563H38.9797V30.861H44.4532V25.9563V25.9563ZM31.5105 20.0029H26.037V24.9654H31.5105V20.0029ZM37.9777 20.0029H32.5042V24.9654H37.9777V20.0029ZM60.8987 28.26C59.7063 27.459 56.9571 27.1701 54.8455 27.5664C54.5722 25.5847 53.4626 23.859 51.4421 22.3066L50.2828 21.5387L49.5127 22.6947C47.9891 24.9902 47.575 28.7719 49.2063 31.2656C48.4859 31.6536 47.0699 32.1821 45.1985 32.1491H9.20235C8.48193 36.3437 9.68263 41.7933 12.8458 45.5338C15.918 49.1587 20.522 51 26.5421 51C39.5759 51 49.2229 45.0136 53.7359 34.139C55.5079 34.1721 59.3336 34.1473 61.2961 30.4068C61.4204 30.2004 61.8427 29.3169 62 28.9949L60.8987 28.26V28.26ZM18.5761 25.9563H13.1108V30.861H18.5844V25.9563H18.5761ZM25.0433 25.9563H19.5698V30.861H25.0433V25.9563ZM31.5105 25.9563H26.037V30.861H31.5105V25.9563ZM25.0433 20.0029H19.5698V24.9654H25.0433V20.0029Z" fill="white"/>
</svg>
