<svg width="65" height="65" viewBox="0 0 65 65" fill="none" xmlns="http://www.w3.org/2000/svg">
<path d="M0.5 12C0.5 5.64873 5.64873 0.5 12 0.5H53C59.3513 0.5 64.5 5.64873 64.5 12V53C64.5 59.3513 59.3513 64.5 53 64.5H12C5.64873 64.5 0.5 59.3513 0.5 53V12Z" stroke="#F17E01"/>
<path d="M47.5 45.0438L33.8125 52.6375C32.875 53.125 31.9375 53.125 31 52.6375L17.5 45.0438L41.9687 20.3875L42.625 20.2C43.1875 20.2 43.5062 20.4438 43.5625 20.95L47.5 45.0438ZM27.5313 20.7625L19 34.9188L22.5625 12.5125C22.6187 12.0063 22.9375 11.7625 23.5 11.7625C23.875 11.7625 24.1187 11.875 24.25 12.2313L28.2812 19.6375L27.5313 20.7625ZM35.9688 23.125L18.0625 41.1063L31.6562 18.0438C31.8438 17.6688 32.125 17.5 32.5 17.5C32.875 17.5 33.1187 17.6688 33.25 18.0438L35.9688 23.125Z" fill="#F17E01"/>
</svg>
