<svg width="65" height="65" viewBox="0 0 65 65" fill="none" xmlns="http://www.w3.org/2000/svg">
<rect width="65" height="65" rx="12" fill="#EFD81D"/>
<path d="M44.4009 47.7031C44.8372 48.5875 45.5141 49.3309 46.3539 49.8478C47.1937 50.3647 48.1623 50.6342 49.1484 50.6253C51.1425 50.6253 52.4166 49.6283 52.4166 48.2516C52.4166 46.602 51.1073 46.017 48.9136 45.0566L47.7098 44.5405C44.2378 43.0611 41.9302 41.2077 41.9302 37.2899C41.9302 33.68 44.6808 30.9336 48.9783 30.9336C50.3731 30.8324 51.7668 31.1446 52.9851 31.8312C54.2034 32.5177 55.1923 33.5482 55.8281 34.7938L52.0805 37.1999C51.8351 36.5826 51.4077 36.0547 50.8551 35.6862C50.3025 35.3177 49.6508 35.1261 48.9867 35.1369C48.6972 35.1078 48.4049 35.1393 48.1283 35.2294C47.8517 35.3196 47.5969 35.4664 47.3801 35.6605C47.1634 35.8546 46.9895 36.0917 46.8695 36.3568C46.7496 36.6218 46.6861 36.9089 46.6833 37.1999C46.6833 38.6441 47.5777 39.2277 49.6364 40.122L50.8402 40.6367C54.9295 42.3903 57.2372 44.1777 57.2372 48.1967C57.2372 52.5294 53.8341 54.9031 49.2623 54.9031C47.4816 55.0164 45.7061 54.612 44.15 53.7386C42.594 52.8653 41.3239 51.5604 40.493 49.9813L44.4009 47.7031ZM27.4022 48.125C28.1588 49.4666 28.8464 50.6 30.4959 50.6C32.0766 50.6 33.075 49.9813 33.075 47.5766V31.2149H37.8872V47.6441C37.8872 52.6264 34.965 54.8947 30.7012 54.8947C29.1951 54.9762 27.6996 54.5999 26.4115 53.8153C25.1233 53.0306 24.1029 51.8744 23.4844 50.4988L27.4022 48.125Z" fill="black"/>
</svg>
