<svg width="65" height="65" viewBox="0 0 65 65" fill="none" xmlns="http://www.w3.org/2000/svg">
<path d="M0.5 12C0.5 5.64873 5.64873 0.5 12 0.5H53C59.3513 0.5 64.5 5.64873 64.5 12V53C64.5 59.3513 59.3513 64.5 53 64.5H12C5.64873 64.5 0.5 59.3513 0.5 53V12Z" stroke="#81C564"/>
<path d="M41.8041 27.5175C39.5395 17.2875 34.186 13.9252 33.6108 12.64C33.1092 11.9177 32.6612 10.891 32.294 10C32.2295 10.9075 32.1954 11.2558 31.3569 12.1707C30.0615 13.2083 23.4055 18.921 22.8644 30.5407C22.3592 41.3793 30.5148 47.8382 31.6221 48.6613L31.7475 48.753C31.9781 50.4979 32.1752 52.2472 32.3387 54H33.2005C33.4046 52.1082 33.7097 50.2293 34.1143 48.3717C34.8614 47.829 35.1965 47.5228 35.6372 47.1012C37.7244 45.1254 39.3832 42.7234 40.5063 40.0504C41.6294 37.3775 42.1917 34.4931 42.1571 31.5838C42.175 30.0915 41.9725 28.5368 41.8041 27.5175ZM32.2438 42.5417C32.2438 42.5417 32.2438 27.3415 32.7365 27.3433C33.1181 27.3433 33.6144 46.9508 33.6144 46.9508C32.9318 46.8683 32.2438 43.7242 32.2438 42.5417Z" fill="#81C564"/>
</svg>
