<svg width="65" height="65" viewBox="0 0 65 65" fill="none" xmlns="http://www.w3.org/2000/svg">
<path d="M0 12C0 5.37258 5.37258 0 12 0H53C59.6274 0 65 5.37258 65 12V53C65 59.6274 59.6274 65 53 65H12C5.37258 65 0 59.6274 0 53V12Z" fill="#395220"/>
<path d="M32.5 52.9212C31.8872 52.9212 31.3175 52.7617 30.7854 52.4858L25.3584 49.3719C24.5432 48.9383 24.9517 48.7806 25.1972 48.7018C26.2972 48.347 26.5015 48.2682 27.6446 47.6357C27.7664 47.5569 27.9312 47.5963 28.0531 47.6752L32.2151 50.0814C32.3764 50.1602 32.5824 50.1602 32.7042 50.0814L48.9851 40.9725C49.1464 40.8937 49.2288 40.736 49.2288 40.5389V22.3607C49.2288 22.1636 49.1482 22.0059 48.9851 21.9271L32.7042 12.8595C32.5412 12.7806 32.3369 12.7806 32.2151 12.8595L15.9342 21.9271C15.7712 22.0059 15.6888 22.203 15.6888 22.3607V40.5389C15.6888 40.6966 15.7712 40.8937 15.9342 40.9725L20.3812 43.4576C22.7892 44.6401 24.2977 43.2605 24.2977 41.8809V23.9391C24.2977 23.7027 24.502 23.4661 24.7887 23.4661H26.8688C27.1142 23.4661 27.3579 23.6632 27.3579 23.9391V41.8791C27.3579 44.9948 25.6039 46.808 22.5437 46.808C21.6049 46.808 20.8703 46.808 18.7902 45.8226L14.5063 43.4576C13.9901 43.1737 13.559 42.7572 13.2576 42.251C12.9562 41.7449 12.7953 41.1675 12.7917 40.5784V22.4001C12.7917 21.2176 13.4438 20.1139 14.5063 19.5227L30.7872 10.4121C31.3172 10.1402 31.9043 9.99847 32.5 9.99847C33.0957 9.99847 33.6828 10.1402 34.2128 10.4121L50.4955 19.5209C51.5562 20.1121 52.2083 21.2158 52.2083 22.3983V40.5766C52.2083 41.7591 51.5562 42.8627 50.4955 43.4558L34.2128 52.5628C33.6722 52.7972 33.0892 52.9179 32.5 52.9176V52.9212ZM37.5184 40.4207C30.3787 40.4207 28.9095 37.2674 28.9095 34.5852C28.9095 34.3487 29.1137 34.1122 29.3986 34.1122H31.5199C31.7654 34.1122 31.9679 34.2699 31.9679 34.5064C32.2957 36.5955 33.2346 37.6203 37.5597 37.6203C40.9871 37.6203 42.4563 36.8714 42.4563 35.0977C42.4563 34.0728 42.0478 33.3239 36.7032 32.8115C32.2545 32.3761 29.481 31.4319 29.481 28.0009C29.481 24.8063 32.2545 22.9125 36.9075 22.9125C42.1302 22.9125 44.7012 24.6486 45.0273 28.4344C45.0237 28.5626 44.9805 28.6865 44.9037 28.7892C44.8231 28.868 44.7012 28.9469 44.5776 28.9469H42.4563C42.3532 28.9444 42.2538 28.9084 42.173 28.8444C42.0922 28.7804 42.0344 28.6918 42.0084 28.5921C41.5174 26.4242 40.2525 25.7129 36.9075 25.7129C33.1522 25.7129 32.7042 26.9742 32.7042 27.9202C32.7042 29.0651 33.2346 29.4199 38.2942 30.0505C43.3127 30.6812 45.6795 31.5878 45.6795 34.9776C45.6383 38.4499 42.7017 40.4207 37.5184 40.4207Z" fill="#8BBF3D"/>
</svg>
