<svg width="65" height="65" viewBox="0 0 65 65" fill="none" xmlns="http://www.w3.org/2000/svg">
<path d="M0 12C0 5.37258 5.37258 0 12 0H53C59.6274 0 65 5.37258 65 12V53C65 59.6274 59.6274 65 53 65H12C5.37258 65 0 59.6274 0 53V12Z" fill="url(#paint0_linear)"/>
<path d="M0 12C0 5.37258 5.37258 0 12 0H53C59.6274 0 65 5.37258 65 12V53C65 59.6274 59.6274 65 53 65H12C5.37258 65 0 59.6274 0 53V12Z" fill="url(#paint1_linear)"/>
<path d="M29.295 14.1115C27.6004 16.9363 27.4452 17.1666 26.8246 17.8005C25.5322 19.1334 23.9315 19.8447 21.894 19.9894C21.5122 20.0159 19.3113 20.0567 16.3774 20.0913C15.0748 20.1076 14.8461 20.1137 14.8135 20.1484C14.7931 20.1708 14.4358 20.7068 14.0172 21.3427L13.2618 22.4942L13.4742 22.5044C13.5885 22.5105 14.3786 22.4983 15.2259 22.482C16.1343 22.4626 17.0429 22.4497 17.9515 22.4433C19.1193 22.4433 19.1357 22.4433 19.3133 22.5044C19.8156 22.6756 20.1157 23.1281 20.0381 23.5907C20.0076 23.7984 19.9142 23.9917 19.7704 24.1447C19.6266 24.2978 19.4393 24.4032 19.2337 24.4468C19.0213 24.5018 18.4681 24.5161 13.4742 24.5996C12.6044 24.6139 11.8817 24.6302 11.8735 24.6404C11.3477 25.4068 10.8392 26.1849 10.3484 26.974C10.3565 26.9822 11.1752 26.974 12.1716 26.9597C18.562 26.8558 24.103 26.7722 25.6465 26.7559C27.1308 26.7396 27.678 26.7152 28.0761 26.6459C29.1786 26.4584 30.0239 26.0406 30.7507 25.3211C31.2672 24.8075 31.7205 24.1553 32.4902 22.8142C32.7454 22.372 33.0251 21.8971 33.117 21.7544L33.3987 21.2999C33.4661 21.1899 33.5416 21.0757 33.5661 21.0451C33.6335 20.9677 33.7703 20.7476 33.852 20.5764C33.9214 20.4337 34.9422 18.7298 35.3832 18.0145C35.6895 17.5212 35.8569 17.3786 36.2407 17.2909C36.7716 17.1687 37.4249 17.4988 37.5739 17.9676C37.6964 18.3508 37.6413 18.5892 37.2963 19.1701C34.8259 23.3176 33.9275 24.8034 33.4436 25.5351C32.0717 27.6099 30.0055 28.7227 27.337 28.8226C27.1227 28.8287 25.7588 28.8532 24.3031 28.8756L20.1136 28.9388L16.8654 28.9938C14.7543 29.0292 12.6432 29.0618 10.5321 29.0916C9.5072 29.1018 8.97841 29.1181 8.93962 29.1365C8.83894 29.2495 8.75631 29.3774 8.69462 29.5155C8.42206 30.0228 8.22599 30.5674 8.11275 31.1318C8.10095 31.2252 8.07406 31.316 8.03312 31.4008C7.98412 31.4151 7.99229 33.0048 8.03925 33.0517C8.08216 33.138 8.10979 33.2311 8.12091 33.3268C8.23729 33.9077 8.52312 34.5823 8.92737 35.2263L9.1152 35.5259L11.802 35.5422C13.2802 35.5504 17.1042 35.5728 20.3035 35.585C23.758 35.6013 26.2529 35.6238 26.4489 35.6401C27.0982 35.6931 27.4452 35.7461 27.9802 35.8806C29.2675 36.189 30.4384 36.8612 31.353 37.8168C31.8736 38.3548 32.1288 38.7135 33.2742 40.5458C34.3035 42.1957 35.3203 43.8535 36.3244 45.5188C36.6143 46.0895 36.4265 46.6826 35.8691 46.9455C35.7061 47.0293 35.526 47.0747 35.3427 47.0782C35.1594 47.0818 34.9777 47.0433 34.8116 46.9659C34.5155 46.8191 34.5012 46.8028 32.9741 44.3367C32.6288 43.7763 32.2803 43.2178 31.9287 42.6614C31.6898 42.2805 31.4556 41.8966 31.2264 41.5098C30.471 40.2462 30.0259 39.6144 29.5522 39.1415C28.8977 38.4989 28.0734 38.0556 27.1757 37.8637C26.5918 37.7332 26.4857 37.7291 22.4228 37.7067C20.2348 37.6913 18.0468 37.6818 15.8588 37.6782C14.3521 37.6782 12.5227 37.668 11.7959 37.6619C10.7404 37.6456 10.4749 37.6476 10.4749 37.6761C10.4749 37.6925 10.7934 38.2264 11.1854 38.8542L11.8959 39.9955L12.5738 40.0016C17.4881 40.0404 17.7392 40.0424 17.9209 40.077C18.317 40.1586 18.5518 40.3277 18.709 40.6477C18.7882 40.7772 18.8239 40.9286 18.8111 41.0798C18.8175 41.2104 18.7947 41.3407 18.7442 41.4613C18.6937 41.5819 18.6168 41.6897 18.5191 41.7768C18.3761 41.9157 18.1996 42.0154 18.0066 42.0662C17.8535 42.1111 17.7167 42.1152 15.5281 42.107C13.6497 42.1009 13.2128 42.107 13.2292 42.1335C13.7027 42.908 14.1819 43.6791 14.6665 44.4468C14.6828 44.461 15.8751 44.4794 17.7453 44.4896C20.2566 44.5059 20.8629 44.5161 21.161 44.5507C23.417 44.8157 25.1259 45.7797 26.4142 47.5202C26.6531 47.8423 26.9205 48.2662 28.2762 50.4551L29.2276 51.9919H30.6854C31.4857 51.9919 32.1431 51.9857 32.1431 51.9776C32.1431 51.9694 31.6184 51.1216 30.9794 50.0944C29.9606 48.462 28.9466 46.8268 27.9373 45.1886C27.7567 44.8928 27.5702 44.6006 27.3779 44.3122C26.683 43.3119 25.6388 42.6068 24.4501 42.3353C23.9356 42.2109 23.5763 42.1783 22.6657 42.1661C21.7551 42.1539 21.6 42.1335 21.3468 42.0031C21.1468 41.8994 20.9825 41.7382 20.8752 41.5404C20.8078 41.4079 20.7996 41.3611 20.7996 41.1104C20.7996 40.8515 20.8058 40.8148 20.8752 40.6864C20.9509 40.5475 21.0548 40.4258 21.1803 40.3293C21.3058 40.2328 21.4501 40.1635 21.604 40.126C21.747 40.0832 21.8695 40.077 22.6657 40.077C23.3701 40.077 23.6457 40.0872 23.9418 40.126C25.8548 40.3705 27.2901 41.0329 28.4824 42.2191C29.0459 42.7816 29.2929 43.122 30.03 44.3428C30.2893 44.7688 30.8712 45.7124 31.3285 46.438L33.4722 49.8743L34.7871 51.9939H36.6348C38.1088 51.9939 38.4825 51.9837 38.4723 51.9572C38.3115 51.6907 38.1481 51.4257 37.9823 51.1623C37.0431 49.6603 36.9757 49.54 36.9349 49.2404C36.8798 48.8205 37.1758 48.3864 37.6393 48.2213C37.8474 48.1394 38.0754 48.1216 38.2937 48.1703C38.5121 48.2189 38.7108 48.3319 38.8643 48.4944C38.9949 48.6229 39.7095 49.7377 40.7753 51.4803L41.0938 52L41.4572 51.9817C42.3847 51.946 43.2951 51.7206 44.1318 51.3193C44.2645 51.2581 44.387 51.2051 44.4053 51.199C45.265 50.769 46.0171 50.1519 46.6062 49.3933C48.2448 46.9201 49.8734 44.4404 51.4919 41.9541C56.5634 34.1971 56.4593 34.3642 56.7064 33.6264C57.1673 32.2786 57.083 30.8044 56.4716 29.5176C56.3736 29.3077 54.7606 26.6907 51.8513 22.0112C50.3278 19.5479 48.7945 17.0906 47.2514 14.6394C46.6683 13.8424 45.8968 13.2017 45.0056 12.7745C44.4276 12.4687 43.8068 12.2516 43.164 12.1304C42.7965 12.0632 42.77 12.0571 42.7904 12.0245C42.7985 12.0082 42.574 12.0041 42.1942 12.0041L41.5858 12.0143L41.0448 12.911C39.8443 14.9084 39.732 15.0877 39.5625 15.2569C39.3941 15.4355 39.1732 15.5562 38.9316 15.6013C38.4784 15.6829 37.919 15.4118 37.7271 15.0164C37.6658 14.9002 37.6597 14.8452 37.6597 14.6006C37.6597 14.2195 37.6413 14.2603 38.6887 12.5421C38.7961 12.374 38.8963 12.2012 38.9888 12.0245C38.9888 12.0102 38.3967 12 37.5392 12H36.0896L36.0509 12.0611C34.8144 14.1232 33.5696 16.1804 32.3167 18.2325C31.8879 18.9398 31.3612 19.8141 31.1529 20.1749C30.6813 20.982 30.4873 21.2755 30.1525 21.6912C29.807 22.1077 29.4221 22.4899 29.003 22.8326C27.921 23.6702 26.6143 24.1777 25.083 24.355C24.346 24.4406 23.2782 24.4529 22.8944 24.3815C22.7313 24.3485 22.577 24.2813 22.4419 24.1843C22.3067 24.0873 22.1937 23.9628 22.1104 23.819C22.043 23.6865 22.0348 23.6499 22.0348 23.391C22.0348 23.1464 22.043 23.0914 22.1043 22.963C22.1764 22.8225 22.2778 22.699 22.4018 22.6009C22.5258 22.5028 22.6694 22.4324 22.8229 22.3944C22.972 22.3536 23.1496 22.3393 23.8744 22.319C24.4134 22.3047 24.8646 22.2782 25.0545 22.2517C25.4712 22.19 25.8808 22.0876 26.2774 21.946C26.6122 21.8135 27.0859 21.5587 27.3636 21.359C27.7695 21.0502 28.1333 20.6898 28.4457 20.287C28.56 20.1361 29.1092 19.2496 29.6686 18.3182C30.226 17.3847 31.3019 15.5993 32.0594 14.3499C32.8148 13.0985 33.4416 12.0591 33.4477 12.0367C33.46 12.0041 33.2476 12 32.0124 12H30.5669L29.297 14.1094L29.295 14.1115ZM43.6601 15.2039C43.6601 15.2243 43.6703 15.2447 43.6846 15.2488C43.6948 15.2508 43.8908 15.5524 44.1175 15.9152C45.1505 17.5661 45.5303 18.1918 45.5875 18.3487C45.661 18.5525 45.6691 18.8195 45.6038 19.007C45.4937 19.2272 45.3239 19.4122 45.1138 19.541C44.9017 19.6632 44.6552 19.7118 44.4125 19.6794C44.1699 19.6469 43.9448 19.5352 43.7724 19.3617C43.6091 19.2088 43.4355 18.952 42.8333 17.9656C42.6087 17.5946 42.3963 17.2604 42.3657 17.2196C42.333 17.1707 42.3208 17.1259 42.333 17.0851C42.3535 17.0219 43.4764 15.2916 43.5601 15.1998C43.6152 15.1387 43.6622 15.1387 43.6622 15.206L43.6601 15.2039ZM40.8304 19.5594C40.8222 19.5736 40.8304 19.5859 40.8406 19.592C40.8651 19.6001 42.8884 22.8387 44.0542 24.7341C45.0342 26.3198 45.4752 27.0311 45.8508 27.614C46.4654 28.5699 46.694 29.0142 46.9247 29.7051C47.1595 30.4021 47.2514 31.036 47.2249 31.7534C47.2106 32.2425 47.1636 32.5483 47.0452 33.0252C46.837 33.8404 46.3817 34.7902 45.7998 35.6299C45.616 35.8908 45.2424 36.2862 45.1791 36.2862C45.1587 36.2862 45.1383 36.2963 45.1383 36.3106C45.1383 36.3228 45.0587 36.3616 44.9627 36.3921C44.7013 36.4679 44.4227 36.4593 44.1665 36.3677C43.9104 36.2434 43.7003 36.0415 43.5662 35.7909C43.5009 35.6543 43.4968 35.6136 43.507 35.4036C43.5213 35.1183 43.5805 34.992 43.9786 34.3785C44.489 33.5938 44.6973 33.1638 44.8443 32.5747C45.0975 31.5761 44.9729 30.5855 44.4686 29.5991C44.0118 28.8175 43.5408 28.0442 43.0558 27.2797C42.2623 26.0139 41.4728 24.7455 40.6875 23.4746C40.0586 22.4637 39.5258 21.6036 39.4951 21.5628C39.4666 21.52 39.4461 21.4711 39.4543 21.4528C39.4747 21.3977 40.6589 19.6042 40.7201 19.541C40.761 19.4962 40.7814 19.488 40.8079 19.5084C40.8283 19.5247 40.8386 19.5492 40.8283 19.5614L40.8304 19.5594ZM47.2453 21.412C47.4543 21.4883 47.638 21.6209 47.7761 21.7952C47.9701 22.0336 50.6855 26.3402 51.6777 27.991C52.2494 28.9326 52.5148 29.5196 52.6986 30.2391C52.8251 30.7343 52.8741 31.1175 52.8741 31.6433C52.8741 32.3424 52.7986 32.8051 52.5781 33.4715C52.3209 34.2501 52.1351 34.5986 51.2347 35.9906C50.908 36.5002 49.1971 39.1456 47.4413 41.8747L43.6397 47.7648C43.3069 48.2804 43.0211 48.7227 43.0068 48.7533C42.9905 48.7798 42.968 48.8002 42.9517 48.7941C42.5068 48.1229 42.0812 47.4392 41.6756 46.7437C41.6756 46.7254 41.7001 46.6765 41.7267 46.6377C44.3424 42.5828 46.9598 38.529 49.5789 34.4763C49.9974 33.8282 50.122 33.602 50.2792 33.2127C50.5066 32.6716 50.6112 32.0869 50.5854 31.5007C50.5569 30.8566 50.4282 30.4001 50.0669 29.6786C49.8014 29.1365 49.5462 28.7084 48.9194 27.7424C48.6642 27.349 48.3702 26.8864 48.2682 26.7152C47.9407 26.1772 47.6099 25.6411 47.2759 25.1071C45.7161 22.6084 45.7345 22.641 45.7304 22.3557C45.7304 22.1152 45.812 21.9236 45.9917 21.73C46.17 21.5463 46.3964 21.4164 46.645 21.3549C46.8467 21.3258 47.0523 21.3446 47.2453 21.41V21.412ZM37.9761 23.8883L38.3845 24.5507C40.6119 28.1113 40.7058 28.2682 40.9304 28.7146C41.8716 30.5876 41.8798 32.4484 40.959 34.2888C40.763 34.676 40.6834 34.8085 39.3931 36.8079C37.6617 39.4982 37.4596 39.8039 37.4045 39.8651C37.3596 39.9099 37.3534 39.914 37.3534 39.8712C37.3534 39.8467 36.2652 38.0756 34.9361 35.9376C34.1227 34.6393 33.3169 33.3362 32.5188 32.0285C32.5188 32.0143 33.6499 30.2798 35.0361 28.1724C35.9331 26.8107 36.8273 25.4472 37.7189 24.0819C37.7742 23.9886 37.84 23.9017 37.9149 23.8231C37.9292 23.8231 37.9557 23.8516 37.9761 23.8903V23.8883ZM42.9517 37.8351C43.1871 37.9541 43.3834 38.138 43.5172 38.365C43.5626 38.4635 43.5909 38.5689 43.6009 38.6769C43.6213 38.9479 43.5519 39.1049 43.0619 39.8753C42.2131 41.204 41.3624 42.5315 40.5098 43.8577L40.2546 44.2531C40.2097 44.3347 40.2016 44.3387 40.1566 44.3061C39.7323 43.6551 39.3204 42.996 38.9214 42.3292C38.8969 42.268 41.447 38.3039 41.6307 38.1143C41.7444 37.9876 41.8854 37.8883 42.0432 37.8241C42.2009 37.7598 42.3713 37.7322 42.5413 37.7434C42.6835 37.7408 42.8242 37.7723 42.9517 37.8351V37.8351Z" fill="white"/>
<defs>
<linearGradient id="paint0_linear" x1="32.5" y1="0" x2="32.5" y2="65" gradientUnits="userSpaceOnUse">
<stop stop-color="#A71BDC"/>
<stop offset="0.369792" stop-color="#7412EF" stop-opacity="0.9375"/>
</linearGradient>
<linearGradient id="paint1_linear" x1="32.5" y1="0" x2="32.5" y2="65" gradientUnits="userSpaceOnUse">
<stop stop-color="#A71BDC"/>
<stop offset="0.546875" stop-color="#7512EF" stop-opacity="0.93838"/>
<stop offset="1" stop-color="#D021A1" stop-opacity="0.9375"/>
</linearGradient>
</defs>
</svg>
