<svg width="65" height="65" viewBox="0 0 65 65" fill="none" xmlns="http://www.w3.org/2000/svg">
<path d="M0 12C0 5.37258 5.37258 0 12 0H53C59.6274 0 65 5.37258 65 12V53C65 59.6274 59.6274 65 53 65H12C5.37258 65 0 59.6274 0 53V12Z" fill="#273949"/>
<path d="M55 31.9169C55 28.9356 51.2669 26.11 45.5425 24.3588C46.8644 18.5256 46.2775 13.8831 43.69 12.3963C43.063 12.0451 42.3534 11.8683 41.635 11.8844V13.9281C42.0569 13.9281 42.3963 14.0125 42.6813 14.1681C43.9281 14.8844 44.47 17.6069 44.0481 21.1113C43.9469 21.9738 43.7819 22.8813 43.5794 23.8075C41.6624 23.3456 39.7169 23.0117 37.7556 22.8081C36.5872 21.1962 35.3125 19.664 33.94 18.2219C36.9306 15.4431 39.7375 13.9206 41.6462 13.9206V11.875C39.1225 11.875 35.8206 13.6731 32.4812 16.7913C29.1437 13.6938 25.84 11.9125 23.3181 11.9125V13.9562C25.2175 13.9562 28.0338 15.4713 31.0244 18.2313C29.74 19.5813 28.4556 21.1112 27.235 22.8081C25.2697 23.0094 23.3207 23.3465 21.4019 23.8169C21.19 22.9 21.0344 22.0113 20.9237 21.1581C20.4925 17.6519 21.025 14.9294 22.2644 14.2056C22.5381 14.0406 22.8963 13.9656 23.3181 13.9656V11.9219C22.5494 11.9219 21.85 12.0869 21.2463 12.4337C18.6681 13.9206 18.0906 18.5519 19.42 24.3681C13.7144 26.1306 10 28.945 10 31.9169C10 34.8981 13.7331 37.7238 19.4575 39.4731C18.1356 45.3081 18.7225 49.9506 21.31 51.4356C21.9062 51.7844 22.6037 51.9494 23.3725 51.9494C25.8962 51.9494 29.1981 50.1513 32.5375 47.0331C35.875 50.1325 39.1769 51.9119 41.7006 51.9119C42.4246 51.9272 43.1396 51.7499 43.7725 51.3981C46.3506 49.9131 46.9281 45.2819 45.5988 39.4656C51.2856 37.7144 55 34.8888 55 31.9169ZM43.0562 25.7987C42.7 27.0247 42.287 28.2335 41.8187 29.4213C41.0522 27.9302 40.2105 26.4789 39.2969 25.0731C40.6 25.2662 41.8562 25.5044 43.0581 25.7987H43.0562ZM38.8563 35.5675C38.1419 36.805 37.4069 37.9806 36.6456 39.0719C33.8936 39.3144 31.1257 39.3176 28.3731 39.0813C26.7943 36.826 25.4135 34.4383 24.2463 31.945C25.4117 29.4458 26.7866 27.0498 28.3563 24.7825C31.1076 24.5394 33.8749 24.5357 36.6269 24.7713C37.3881 25.8625 38.1325 27.0288 38.8469 28.2588C39.5444 29.4588 40.1781 30.6775 40.7556 31.9075C40.1717 33.1524 39.5381 34.3734 38.8563 35.5675ZM41.8187 34.375C42.3137 35.6031 42.7375 36.8331 43.0844 38.0256C41.8844 38.32 40.6169 38.5675 39.3062 38.7588C40.2161 37.3402 41.0546 35.8771 41.8187 34.375ZM32.5188 44.1625C31.6656 43.2813 30.8125 42.3006 29.9688 41.2262C30.7938 41.2638 31.6375 41.2919 32.4906 41.2919C33.3531 41.2919 34.2062 41.2731 35.0406 41.2262C34.2156 42.3006 33.3625 43.2813 32.5188 44.1625ZM25.6937 38.7588C24.4295 38.5756 23.1744 38.3341 21.9325 38.035C22.2719 36.8519 22.6938 35.6313 23.17 34.4125C23.5469 35.1438 23.9425 35.8788 24.3737 36.6138C24.805 37.3469 25.2437 38.0631 25.6937 38.7588ZM32.4719 19.6713C33.325 20.5525 34.1781 21.5331 35.0219 22.6075C34.1969 22.57 33.3531 22.5419 32.5 22.5419C31.6375 22.5419 30.7844 22.5606 29.95 22.6075C30.775 21.5331 31.6281 20.5525 32.4719 19.6713ZM25.6844 25.075C24.7748 26.4905 23.9362 27.9504 23.1719 29.4494C22.6904 28.254 22.268 27.0356 21.9062 25.7987C23.1062 25.5138 24.3737 25.2663 25.6844 25.075ZM17.3837 36.5575C14.1363 35.1737 12.0362 33.3569 12.0362 31.9169C12.0362 30.4769 14.1363 28.6506 17.3837 27.2763C18.1713 26.9369 19.0338 26.6331 19.9244 26.35C20.4475 28.1463 21.1356 30.0175 21.9869 31.9356C21.1832 33.7397 20.5035 35.5965 19.9525 37.4931C19.0815 37.2234 18.2242 36.9112 17.3837 36.5575ZM22.3188 49.6637C21.0719 48.9512 20.53 46.225 20.9519 42.7225C21.0531 41.86 21.2181 40.9506 21.4206 40.0244C23.2169 40.465 25.18 40.8044 27.2444 41.0256C28.4128 42.6375 29.6875 44.1697 31.06 45.6119C28.0694 48.3906 25.2625 49.9131 23.3538 49.9131C22.9936 49.9171 22.6381 49.832 22.3188 49.6656V49.6637ZM44.0762 42.6756C44.5075 46.18 43.975 48.9044 42.7356 49.6281C42.4619 49.7931 42.1037 49.8662 41.6819 49.8662C39.7825 49.8662 36.9662 48.3531 33.9756 45.5913C35.26 44.245 36.5444 42.7131 37.765 41.0163C39.7303 40.8149 41.6793 40.4779 43.5981 40.0075C43.81 40.9338 43.9731 41.8225 44.0762 42.6756ZM47.6069 36.5575C46.8194 36.8969 45.9569 37.2006 45.0662 37.4838C44.5056 35.5775 43.8165 33.7113 43.0037 31.8981C43.8475 29.9913 44.5244 28.1294 45.0381 26.3406C45.9475 26.6238 46.8081 26.9369 47.6162 27.2763C50.8638 28.66 52.9637 30.4769 52.9637 31.9169C52.9544 33.3569 50.8544 35.1831 47.6069 36.5575Z" fill="#79D8F7"/>
<path d="M32.4906 36.1094C33.6025 36.1094 34.6689 35.6677 35.4551 34.8814C36.2414 34.0952 36.6831 33.0288 36.6831 31.9169C36.6831 30.805 36.2414 29.7386 35.4551 28.9523C34.6689 28.1661 33.6025 27.7244 32.4906 27.7244C31.3787 27.7244 30.3123 28.1661 29.5261 28.9523C28.7398 29.7386 28.2981 30.805 28.2981 31.9169C28.2981 33.0288 28.7398 34.0952 29.5261 34.8814C30.3123 35.6677 31.3787 36.1094 32.4906 36.1094Z" fill="#79D8F7"/>
</svg>
