<svg width="64" height="64" viewBox="0 0 64 64" fill="none" xmlns="http://www.w3.org/2000/svg">
<path d="M0.5 12C0.5 5.64873 5.64873 0.5 12 0.5H52C58.3513 0.5 63.5 5.64873 63.5 12V52C63.5 58.3513 58.3513 63.5 52 63.5H12C5.64873 63.5 0.5 58.3513 0.5 52V12Z" stroke="#FF0000"/>
<path d="M19.0385 11.3231C19.0385 11.3231 18.8685 11.593 19.03 11.9925C19.1277 12.239 19.4253 12.5365 19.7525 12.851C19.7525 12.851 23.1844 16.2 23.6051 16.6845C25.507 18.8796 26.3336 21.0408 26.4101 24.0221C26.4569 25.9346 26.0893 27.6176 25.1925 29.5748C23.586 33.0789 20.1988 36.9443 14.9712 41.241L15.7362 40.986C16.2314 40.6184 16.9007 40.2231 18.4818 39.3582C22.1219 37.3693 26.2083 35.5375 31.2296 33.6505C38.4525 30.9369 50.3334 27.7515 57.0951 26.7166L57.7985 26.6082L57.6923 26.4383C57.0718 25.4778 56.651 24.8849 56.141 24.2559C54.6599 22.422 52.8643 20.926 50.6649 19.6956C47.6431 18.002 43.7225 16.6866 38.7649 15.7006C37.2174 15.4096 35.6652 15.144 34.109 14.9038C31.3253 14.4768 28.5456 14.0235 25.7705 13.5438C24.8674 13.3844 23.518 13.1591 22.6234 12.9658C21.9335 12.8192 21.2518 12.6362 20.5813 12.4175C20.0118 12.1944 19.2106 11.9776 19.0385 11.3231ZM21.0275 13.2548C21.0339 13.2505 21.1614 13.2909 21.3186 13.344C21.6076 13.4418 21.9901 13.5565 22.4364 13.6819C22.7466 13.7669 23.0888 13.8604 23.4543 13.9518C23.9175 14.0708 24.3021 14.1728 24.3064 14.1791C24.3574 14.2365 25.1373 16.7249 25.4029 17.679C25.5049 18.0445 25.5814 18.3484 25.575 18.3548C25.5009 18.2626 25.4368 18.1629 25.3838 18.0573C24.4828 16.472 23.0526 14.8591 21.4015 13.5608C21.2731 13.4634 21.1484 13.3613 21.0275 13.2548ZM24.8313 14.3045C24.971 14.3179 25.1096 14.342 25.2456 14.3768C26.561 14.6658 28.9113 15.1205 30.42 15.3755C30.6729 15.418 30.879 15.4605 30.879 15.4754C30.8174 15.5306 30.747 15.5752 30.6708 15.6071C30.4179 15.7346 29.3915 16.3488 29.0494 16.5783C28.2679 17.0915 27.5352 17.6755 26.8606 18.3229C26.7246 18.4624 26.585 18.5985 26.442 18.7309C26.4055 18.6362 26.3764 18.5389 26.3549 18.4398C25.994 17.1454 25.5322 15.8814 24.9736 14.6594C24.9175 14.5451 24.8672 14.4281 24.8228 14.3088C24.8228 14.3066 24.8228 14.3045 24.8313 14.3045ZM31.5186 15.5753C31.5611 15.5901 31.6461 15.8515 31.7928 16.4338C32.1314 17.8067 32.2413 19.2262 32.1179 20.6349L32.0924 20.7156L31.695 20.5881C30.5943 20.2433 29.4877 19.9174 28.3758 19.6106C27.974 19.5078 27.5769 19.3873 27.1858 19.2494C27.1858 19.2026 28.1399 18.2485 28.55 17.8851C29.3341 17.1924 31.4443 15.5519 31.5186 15.5753ZM32.0499 15.6518C32.0733 15.6305 35.2459 16.1788 36.6866 16.455C37.7619 16.6611 39.3153 16.9863 39.4088 17.0266C39.4555 17.0436 39.294 17.1329 38.7776 17.3666C36.7376 18.2846 35.2246 19.1091 33.7201 20.1143C33.3249 20.3778 32.9955 20.5945 32.9891 20.5945C32.9806 20.5945 32.9764 20.3735 32.9764 20.1058C32.9764 18.6395 32.681 17.1584 32.1455 15.9068C32.1058 15.8249 32.0737 15.7395 32.0499 15.6518ZM40.2524 17.2753C40.2758 17.2986 40.1716 17.9255 40.0824 18.2953C39.8019 19.4428 39.0581 21.1513 38.1401 22.7556C38.0437 22.9366 37.9358 23.1112 37.8171 23.2784C37.6555 23.2099 37.4999 23.1281 37.3518 23.034C36.455 22.5091 35.4393 22.014 34.3236 21.5529C34.124 21.4744 33.9269 21.3894 33.7329 21.2979C33.6819 21.2511 36.1618 19.6085 37.4771 18.8201C38.529 18.189 40.2226 17.2455 40.2524 17.2753ZM40.8389 17.3666C40.909 17.3666 42.3158 17.7491 43.0425 17.968C44.8551 18.5099 46.9461 19.2728 48.3019 19.889L48.865 20.144L48.4676 20.2354C45.1505 21.0004 42.3051 21.878 39.5681 22.9894C39.3408 23.0829 39.1431 23.1594 39.1283 23.1594C39.1668 23.0229 39.2203 22.8911 39.2876 22.7663C40.1121 21.0174 40.6434 19.1814 40.7815 17.6238C40.7943 17.4814 40.8198 17.3666 40.8389 17.3666ZM26.8564 20.5796C26.8776 20.5584 27.9486 20.8091 28.533 20.9728C29.4106 21.2193 31.2785 21.844 31.2785 21.8929C31.2785 21.9014 31.0724 22.082 30.8216 22.2924C29.7365 23.2047 28.6854 24.1566 27.6703 25.1463C27.4602 25.3567 27.2419 25.5588 27.0158 25.7519C27.0009 25.7519 26.9945 25.703 27.003 25.6456C27.1794 24.3472 27.1411 22.6813 26.8968 20.9855C26.8726 20.8522 26.8584 20.7172 26.8543 20.5818L26.8564 20.5796ZM49.4026 20.6009C49.4175 20.6179 48.9054 21.419 48.5866 21.8759C48.1191 22.5431 47.4455 23.4186 45.907 25.3545L43.8798 27.9088C43.6946 28.1489 43.504 28.3849 43.3081 28.6164C43.3018 28.6164 43.2019 28.4761 43.0893 28.3061C42.2207 27.0099 41.1684 25.8468 39.9655 24.853C39.7771 24.6951 39.5858 24.5407 39.3918 24.3898C39.3344 24.3513 39.2817 24.3063 39.2345 24.2559C39.2345 24.2346 40.5456 23.6736 41.5465 23.2656C43.4855 22.4862 45.4548 21.7844 47.4498 21.1619C48.389 20.875 49.3878 20.5881 49.4026 20.6009ZM49.9934 20.756C50.1482 20.8084 50.296 20.8797 50.4333 20.9685C52.3069 22.0419 54.04 23.3439 55.5928 24.8445C56.005 25.2483 57.0101 26.2959 56.9953 26.3044L56.2239 26.366C52.9726 26.6104 48.8161 27.301 44.8126 28.2636C44.5406 28.3274 44.3069 28.3826 44.2899 28.3826C44.275 28.3826 44.5725 28.0851 44.9508 27.7196C47.3031 25.4608 48.3741 24.0349 49.6364 21.4849C49.8234 21.1066 49.9828 20.7773 49.9891 20.7581H49.9934V20.756ZM32.8064 22.5198C32.9148 22.541 33.9178 23.0085 34.6743 23.3868C35.3649 23.7331 36.4125 24.292 36.4656 24.3409C36.472 24.3472 36.1044 24.5385 35.6454 24.768C34.2837 25.4441 32.9522 26.1794 31.6546 26.9716C31.2828 27.199 30.9746 27.3839 30.964 27.3839C30.9321 27.3839 30.9428 27.3563 31.151 26.978C31.8686 25.6395 32.3964 24.2077 32.7193 22.7238C32.749 22.592 32.783 22.5113 32.8064 22.5176V22.5198ZM31.797 22.6983C31.8183 22.7195 31.559 23.6758 31.3933 24.1857C30.9443 25.5275 30.3492 26.8159 29.6189 28.0278L29.4276 28.3401L28.9963 27.9215C28.5765 27.4937 28.0917 27.1351 27.5598 26.859C27.4281 26.7995 27.3028 26.7269 27.1858 26.6423C27.1858 26.5785 28.5033 25.3821 29.519 24.5215C30.2479 23.9053 31.78 22.6791 31.797 22.6983ZM37.934 25.2227L38.3101 25.4671C39.175 26.0281 40.1971 26.7825 40.977 27.4306C41.4148 27.7961 42.2626 28.5569 42.4369 28.7396L42.5304 28.8395L41.9056 29.0138C38.7112 29.885 35.5562 30.8946 32.4494 32.0397C32.2251 32.1257 31.9983 32.2051 31.7694 32.2778C31.7248 32.2778 31.6801 32.3181 32.477 31.585C34.517 29.7086 36.3169 27.641 37.662 25.6308L37.934 25.2227ZM36.3211 25.6265C36.3403 25.6456 35.2756 27.1353 34.6445 27.9768C33.888 28.9819 32.5408 30.6649 31.6143 31.7593C31.3777 32.0478 31.1325 32.3291 30.879 32.6029C30.8577 32.6093 30.8471 32.4966 30.845 32.3202C30.845 31.3853 30.607 30.3865 30.1905 29.5408C30.0141 29.1838 29.9844 29.0988 30.0205 29.0648C30.165 28.933 32.4154 27.6495 33.8328 26.8909C34.8081 26.3681 36.3041 25.6074 36.3211 25.6265ZM26.5674 28.0171C27.1849 28.313 27.7643 28.6826 28.2929 29.1179C28.3099 29.1285 28.108 29.2943 27.8466 29.4834C27.1135 30.0125 25.9979 30.8519 25.354 31.3661C24.674 31.908 24.6506 31.925 24.7271 31.806C25.2371 31.0261 25.4921 30.5863 25.7599 30.021C26 29.5195 26.2359 28.9245 26.4059 28.406C26.441 28.269 26.4961 28.138 26.5695 28.0171H26.5674ZM29.1663 30.0571C29.2024 30.0508 29.2513 30.1166 29.4616 30.429C29.9015 31.0878 30.2394 31.9633 30.3265 32.6772L30.3435 32.8324L29.2874 33.2404C27.6651 33.864 26.0595 34.53 24.4721 35.2379C24.1428 35.3909 23.5626 35.6671 23.1823 35.8584C22.8019 36.0496 22.4916 36.1984 22.4916 36.1899C22.4916 36.1814 22.7296 36.0008 23.0229 35.7904C25.3328 34.1116 27.326 32.2756 28.8284 30.4375C28.9878 30.242 29.1344 30.072 29.1535 30.0592C29.1574 30.057 29.1618 30.0556 29.1663 30.055V30.0571ZM27.9678 30.3546C27.9996 30.3844 27.1156 31.3831 26.5206 31.9909C25.0832 33.4679 23.4737 34.7671 21.7266 35.8605C21.4971 36.0071 21.2889 36.1367 21.2591 36.1537C21.2103 36.1835 21.2761 36.107 22.0794 35.2315C22.5851 34.6811 22.9719 34.2242 23.4139 33.6526C23.6176 33.3578 23.8794 33.1076 24.1831 32.9174C25.3243 32.0929 27.938 30.3228 27.9678 30.3525V30.3546ZM30.0906 6C29.9206 5.97875 27.1773 6.96688 25.4156 7.68088C23.0293 8.652 21.1741 9.58063 20.0309 10.3839C19.6059 10.6814 19.0704 11.219 18.9939 11.4251C18.9637 11.5089 18.9486 11.5974 18.9493 11.6865L19.9863 12.664L22.447 13.4503L28.3099 14.5L35.01 15.6518L35.078 15.078L35.0185 15.0674L34.1366 14.9271L33.956 14.6126C33.0453 13.0059 32.2106 11.3572 31.4549 9.672C31.0139 8.65921 30.6377 7.61941 30.3286 6.55888C30.1841 6.0425 30.1693 6.01063 30.0906 6ZM29.961 6.39525H29.9716C29.978 6.40163 30.0078 6.61838 30.0396 6.87338C30.1714 7.95288 30.4136 8.99838 30.7919 10.1246C31.0766 10.9746 31.0809 10.9258 30.7409 10.8301C29.9546 10.6113 26.4229 10.0056 23.8686 9.65075C23.615 9.6184 23.3621 9.58085 23.11 9.53813C23.0781 9.50625 24.9524 8.5245 25.7833 8.13563C26.8479 7.64263 29.7506 6.43563 29.961 6.39525ZM22.5193 9.85475L22.8189 9.95675C24.4594 10.5135 28.5691 11.2998 30.8408 11.4868C31.0958 11.508 31.3125 11.5314 31.3189 11.5378C31.3253 11.5441 31.1064 11.661 30.8344 11.797C29.74 12.3453 28.533 13.0146 27.6979 13.5374C27.4535 13.6904 27.2304 13.8136 27.1985 13.8115C27.0778 13.7945 26.9573 13.7754 26.8373 13.7541L26.5313 13.7053L25.7556 12.9509C24.3935 11.6334 23.331 10.6134 22.9188 10.2309L22.5193 9.85475ZM22.2154 10.097L23.3013 11.4528C23.9005 12.1965 24.4998 12.9381 24.6315 13.0975C24.7654 13.2569 24.8674 13.3908 24.861 13.395C24.8313 13.4184 23.2885 13.1188 22.4704 12.9296C21.8946 12.8072 21.3251 12.6569 20.764 12.4791L20.339 12.3431L20.3411 12.239C20.3475 11.7184 21.0041 10.9491 22.1176 10.165L22.2154 10.097ZM31.4634 11.9436C31.4953 11.9458 31.5314 12.0116 31.627 12.222C31.8905 12.8 32.7108 14.364 32.9084 14.6658C32.9721 14.7656 33.0784 14.772 31.9883 14.5956C29.3745 14.1749 28.5266 14.0325 28.5266 14.0155C28.5799 13.9693 28.6392 13.9307 28.703 13.9008C29.5368 13.4329 30.3244 12.8872 31.0554 12.2709L31.4273 11.9585C31.44 11.9479 31.4528 11.9415 31.4634 11.9436ZM40.62 29.8106L30.403 33.1426L21.5205 37.0654L19.0343 37.7241C17.7168 38.9697 16.3501 40.1621 14.9372 41.2984C14.2032 41.9055 13.5255 42.5776 12.9121 43.3065C12.2066 44.1862 11.6541 45.1213 11.4161 45.8416C10.9911 47.1379 11.1972 48.4511 12.0217 49.6624C13.0736 51.2094 15.1667 52.7819 17.5999 53.8529C18.843 54.3969 20.9361 55.1024 22.5086 55.4976C25.1288 56.1606 30.1884 56.8789 32.9764 56.9851C33.5416 57.0064 34.2939 57.0064 34.33 56.9809C34.3895 56.9405 34.8251 56.1203 35.3288 55.0896C37.0415 51.5919 38.2804 48.3109 38.9476 45.5101C39.3514 43.8123 39.6659 41.5513 39.8699 38.8695C39.9326 37.5005 39.944 36.1296 39.9039 34.7598C39.8509 33.5443 39.721 32.3335 39.515 31.1345C39.488 31.0305 39.4794 30.9227 39.4895 30.8158C39.5193 30.7945 39.6149 30.7626 40.8708 30.3971L40.62 29.8106ZM38.2825 31.1813C38.3781 31.1813 38.6225 33.5485 38.6884 35.0488C38.7011 35.3696 38.699 35.5736 38.6799 35.5736C38.6204 35.5736 37.373 34.8405 36.4869 34.2859C35.6506 33.7591 34.8273 33.2121 34.0176 32.6454C33.9433 32.5859 33.9517 32.5837 34.5829 32.367C35.656 31.9973 38.2039 31.1813 38.2846 31.1813H38.2825ZM33.0805 32.8876C33.1443 32.8876 33.3249 32.9875 33.7499 33.2531C35.3436 34.2519 37.5026 35.4525 38.4249 35.8563C38.7139 35.9838 38.7458 35.9328 38.0849 36.3811C36.6781 37.3374 34.9271 38.2766 32.7788 39.2329C32.5467 39.339 32.3122 39.4396 32.0754 39.5346C32.0911 39.3902 32.1217 39.2478 32.1668 39.1096C32.6874 37.1865 32.9806 35.2421 32.9891 33.6824C32.9934 32.9131 32.9934 32.9089 33.0678 32.8898H33.0805V32.8876ZM32.0095 33.2978C32.0541 33.3445 32.0223 35.07 31.967 35.5418C31.8052 36.8699 31.5075 38.178 31.0788 39.4454C31.049 39.4815 29.9929 38.4509 29.6423 38.0429C29.0871 37.4133 28.6097 36.7191 28.2206 35.9753C28.0464 35.631 27.7659 34.9468 27.7914 34.9276C27.9104 34.8426 31.9798 33.2701 32.0095 33.2978ZM26.9626 35.2868C26.9711 35.2868 26.9796 35.2889 26.9839 35.2953C27.031 35.3847 27.0708 35.4778 27.1029 35.5736C27.4307 36.3896 27.8605 37.1607 28.3821 37.8686C29.0114 38.7018 29.7368 39.4579 30.5433 40.1211C30.5921 40.1636 30.607 40.1551 29.349 40.6311C27.7385 41.2384 26.1131 41.8052 24.4743 42.3311C23.7794 42.5564 23.1908 42.7455 23.1674 42.7561C23.0973 42.7795 23.1185 42.737 23.3225 42.4204C24.2299 41.0051 25.6026 38.2341 26.3719 36.2749C26.5036 35.9349 26.6311 35.5949 26.6545 35.5184C26.6864 35.4079 26.7204 35.3696 26.8245 35.3229C26.8672 35.3005 26.9144 35.2881 26.9626 35.2868ZM25.4156 35.9242C25.4369 35.9434 25.0459 36.77 24.6591 37.5201C23.8393 39.1057 22.9509 40.6549 21.9965 42.1632L21.6098 42.7752C21.5715 42.8326 21.5545 42.8135 21.4355 42.5755C21.1577 42.0085 20.9576 41.4067 20.8405 40.7863C20.7312 40.0218 20.7456 39.2448 20.883 38.4849C20.9829 38.0025 20.9786 38.0131 21.206 37.8984C22.1878 37.3948 25.3838 35.8966 25.4156 35.9242ZM38.7351 36.4661V36.7934C38.7132 38.9233 38.5321 41.0485 38.1933 43.1514C36.792 42.747 35.4394 42.1897 34.16 41.4896C33.4078 41.0774 32.3219 40.4123 32.3538 40.3804C32.3601 40.3719 32.681 40.204 33.0635 40.0043C34.5808 39.218 36.0279 38.368 37.288 37.5265C37.7598 37.212 38.4674 36.6999 38.6246 36.5618L38.7351 36.4661ZM19.5846 38.7463C19.6165 38.7463 19.608 38.8058 19.5591 39.0884C19.517 39.3631 19.4879 39.6397 19.472 39.9171C19.4082 41.0476 19.5931 41.8806 20.152 43.0196C20.3093 43.3384 20.4325 43.6019 20.4261 43.6061C20.3688 43.655 15.2624 45.1489 13.6559 45.5887L12.7315 45.8438C12.6741 45.8608 12.6699 45.848 12.689 45.7163C12.8654 44.5836 13.7302 43.0983 14.9372 41.8488C15.7405 41.02 16.3823 40.527 17.4766 39.9044C18.1721 39.5054 18.8749 39.1193 19.5846 38.7463ZM31.6313 40.9031C31.6355 40.8989 31.8246 40.9987 32.0499 41.1305C33.701 42.0846 36.0024 42.9793 37.9638 43.4276L38.1423 43.4701L37.8979 43.604C36.8736 44.1735 33.497 45.5781 30.0481 46.8701C29.6842 47.0061 29.3208 47.1435 28.958 47.2824C28.9028 47.3094 28.8442 47.3287 28.7838 47.3398C28.7838 47.3313 28.9261 47.0592 29.1004 46.732C30.0694 44.9215 31.0341 42.7221 31.5314 41.1964C31.5802 41.0412 31.6249 40.9095 31.6313 40.9031ZM30.403 41.3069C30.3662 41.4294 30.3215 41.5493 30.2691 41.666C29.4852 43.5174 28.5904 45.3198 27.5895 47.0635C27.4196 47.3751 27.241 47.6819 27.054 47.9836C27.0434 47.9836 26.8118 47.8434 26.5355 47.6755C24.8993 46.6725 23.45 45.44 22.498 44.2394L22.362 44.0694L23.0675 43.876C25.3801 43.2574 27.6455 42.4741 29.8463 41.5321C30.148 41.4046 30.3988 41.3005 30.403 41.3069ZM38.0318 43.9695C38.0339 43.9695 38.036 43.9716 38.036 43.9759C38.036 44.1459 37.6471 45.7354 37.322 46.8871C37.05 47.8498 36.8205 48.6041 36.3976 49.9408C36.2898 50.3014 36.1707 50.6585 36.0406 51.0117C33.8594 50.6389 31.7229 50.04 29.6656 49.2246C29.2044 49.0441 28.7514 48.8435 28.3078 48.6233C28.295 48.6084 28.7604 48.3895 29.3405 48.1345C32.8574 46.6024 36.4996 44.8556 37.7449 44.1055C37.8319 44.0438 37.929 43.9978 38.0318 43.9695ZM20.4219 44.5709C20.441 44.59 19.4571 45.9967 18.0844 47.9199L16.837 49.6688C16.6309 49.9641 16.3164 50.4295 16.1379 50.7057L15.8128 51.2073L15.4685 50.9161C14.9531 50.4639 14.4722 49.9738 14.0299 49.4499C13.3669 48.6233 12.9185 47.7541 12.74 46.9551C12.6592 46.5854 12.655 46.3984 12.7336 46.375C14.1017 46.045 15.4717 45.7227 16.8434 45.4081L19.6059 44.76C20.05 44.6538 20.4176 44.5687 20.4219 44.5709ZM21.41 44.9491L21.6586 45.2275C22.697 46.4064 23.9217 47.4071 25.2839 48.1898C25.4324 48.2635 25.5715 48.3548 25.6983 48.4618C22.64 49.5705 19.5729 50.6542 16.497 51.713C16.4443 51.6816 16.3933 51.6476 16.344 51.611L16.2016 51.509L16.4247 51.186C17.1473 50.1384 18.0568 48.9866 20.0479 46.5918L21.41 44.9491ZM27.5725 49.3543C27.5789 49.3479 27.9231 49.469 28.3418 49.6263C29.3469 50.0024 30.1353 50.2467 31.2041 50.5145C32.5153 50.8439 34.4129 51.1733 35.5349 51.2668C35.7049 51.2795 35.7941 51.3008 35.7686 51.3178C35.7155 51.3517 34.5786 51.73 33.7435 51.9935C30.4688 52.9896 27.1848 53.9551 23.892 54.8899C23.8176 54.9048 23.5584 54.8368 23.5584 54.8049C23.5584 54.7857 23.7433 54.552 23.9685 54.2821C25.0921 52.9366 26.1393 51.5291 27.105 50.0661C27.26 49.8283 27.4158 49.591 27.5725 49.3543ZM26.2083 49.3925C26.2189 49.4031 25.6706 50.2808 24.708 51.798C24.3 52.4376 23.8389 53.1686 23.6816 53.4172C23.5223 53.668 23.2906 54.0505 23.1674 54.2673L22.94 54.6604L22.8253 54.6306C22.549 54.5563 20.5961 53.8656 20.0819 53.6616C19.468 53.419 18.8679 53.143 18.2841 52.835C17.67 52.5035 16.8923 52.0105 16.9518 51.9914L19.2999 51.3496C22.6829 50.4274 24.555 49.8983 25.7811 49.5136C26.0128 49.4435 26.204 49.3883 26.2061 49.3925H26.2083ZM35.8196 51.6471H35.8324C35.8643 51.7279 34.6105 55.1959 34.1536 56.2966C34.0495 56.5431 34.0134 56.6048 33.9581 56.6005C32.9413 56.4721 31.9262 56.3304 30.913 56.1755C28.9878 55.8822 25.7641 55.3191 24.9503 55.1343L24.7611 55.0918L25.915 54.8325C28.3885 54.2757 29.5764 53.9761 30.7813 53.6064C32.3343 53.1284 33.8524 52.5433 35.3245 51.8554C35.4856 51.7769 35.6509 51.7074 35.8196 51.6471Z" fill="#FF0000"/>
</svg>
