<svg width="65" height="65" viewBox="0 0 65 65" fill="none" xmlns="http://www.w3.org/2000/svg">
<path d="M0 12C0 5.37258 5.37258 0 12 0H53C59.6274 0 65 5.37258 65 12V53C65 59.6274 59.6274 65 53 65H12C5.37258 65 0 59.6274 0 53V12Z" fill="#3178C6"/>
<path d="M21.0162 33.1018L21 35.185H27.6485V54H32.3515V35.185H39V33.1421C39 32.0114 38.9757 31.0667 38.9433 31.0424C38.919 31.0102 34.873 30.9939 29.9677 31.0021L21.0407 31.0263L21.0164 33.1016L21.0162 33.1018Z" fill="white"/>
<path d="M50.9651 31.2049C52.3018 31.5211 53.3213 32.0819 54.2571 32.9986C54.7418 33.4887 55.4602 34.3817 55.5188 34.595C55.5353 34.6582 53.2461 36.1123 51.8591 36.9261C51.809 36.9578 51.6083 36.7523 51.3827 36.4361C50.706 35.5038 49.9958 35.1007 48.9094 35.0297C47.3138 34.9268 46.2859 35.7171 46.2943 37.0366C46.2943 37.424 46.3527 37.653 46.5199 37.9692C46.8709 38.6567 47.5225 39.0676 49.5697 39.9052C53.338 41.4384 54.9505 42.4498 55.9533 43.8879C57.073 45.4922 57.3236 48.0524 56.5632 49.9568C55.7278 52.0271 53.6557 53.4339 50.7393 53.9001C49.837 54.0502 47.6981 54.0265 46.7288 53.8606C44.615 53.5049 42.6095 52.5172 41.3729 51.2213C40.8882 50.7154 39.944 49.3958 40.0026 49.3009C40.0277 49.2694 40.2448 49.143 40.4871 49.0086C40.7211 48.8822 41.6069 48.3999 42.4423 47.9418L43.9547 47.112L44.2722 47.5546C44.7151 48.1946 45.6842 49.0718 46.2692 49.3641C47.9486 50.2019 50.2549 50.0832 51.3911 49.1191C51.8758 48.7004 52.0763 48.2657 52.0763 47.6255C52.0763 47.0488 52.001 46.7959 51.6835 46.3615C51.2743 45.8082 50.4387 45.3419 48.0656 44.3702C45.3501 43.2636 44.1803 42.5762 43.1108 41.4856C42.4925 40.8536 41.9075 39.842 41.6653 38.9964C41.4648 38.2932 41.4144 36.531 41.5734 35.8198C42.1333 33.3384 44.1135 31.608 46.971 31.0942C47.8984 30.9283 50.0542 30.9915 50.9651 31.2051V31.2049Z" fill="white"/>
</svg>
